<?xml version="1.0" encoding="UTF-8"?>
<svg version="1.1" xmlns="http://www.w3.org/2000/svg" width="100" height="100">
<path d="M0 0 C33 0 66 0 100 0 C100 33 100 66 100 100 C67 100 34 100 0 100 C0 67 0 34 0 0 Z " fill="#010101" transform="translate(0,0)"/>
<path d="M0 0 C5.97347871 -0.26565661 10.36606867 -0.0067113 15.2578125 3.62890625 C19.56613774 7.72828269 22.19674903 11.82805506 22.51171875 17.86328125 C22.19645178 22.33853434 21.10834963 24.92871556 17.94921875 28.23828125 C12.4722535 31.95514456 7.4891433 33.81392321 0.859375 33.609375 C-1.05078125 33.23828125 -1.05078125 33.23828125 -4.05078125 31.23828125 C-4.11136719 32.52605469 -4.17195313 33.81382813 -4.234375 35.140625 C-4.31876372 36.81902284 -4.40341255 38.49740761 -4.48828125 40.17578125 C-4.52759766 41.02591797 -4.56691406 41.87605469 -4.60742188 42.75195312 C-4.64931641 43.56083984 -4.69121094 44.36972656 -4.734375 45.203125 C-4.78936157 46.32642212 -4.78936157 46.32642212 -4.84545898 47.47241211 C-5.05078125 49.23828125 -5.05078125 49.23828125 -6.05078125 50.23828125 C-9.55078125 50.36328125 -9.55078125 50.36328125 -13.05078125 50.23828125 C-14.63760114 48.65146136 -14.17806661 47.02579779 -14.18017578 44.82617188 C-14.18490402 43.4196637 -14.18490402 43.4196637 -14.18972778 41.98474121 C-14.18770355 40.96497192 -14.18567932 39.94520264 -14.18359375 38.89453125 C-14.18455048 37.85510376 -14.1855072 36.81567627 -14.18649292 35.74475098 C-14.18717488 33.54223571 -14.18531952 31.33971846 -14.18115234 29.13720703 C-14.17580433 25.75288406 -14.18109684 22.36869381 -14.1875 18.984375 C-14.18683922 16.85026012 -14.18555806 14.71614533 -14.18359375 12.58203125 C-14.18561798 11.56226196 -14.18764221 10.54249268 -14.18972778 9.49182129 C-14.18657562 8.55414917 -14.18342346 7.61647705 -14.18017578 6.65039062 C-14.17938019 5.82067749 -14.17858459 4.99096436 -14.17776489 4.1361084 C-14.05078125 2.23828125 -14.05078125 2.23828125 -13.05078125 1.23828125 C-8.74099306 0.50643042 -4.35378235 0.34005214 0 0 Z " fill="#F9F9F9" transform="translate(73.05078125,20.76171875)"/>
<path d="M0 0 C2.97 0 5.94 0 9 0 C11.05922402 2.05922402 10.41427579 6.21708124 10.5625 9.0625 C10.60568359 9.82111328 10.64886719 10.57972656 10.69335938 11.36132812 C10.79973633 13.24065438 10.90039934 15.12030244 11 17 C11.66 17 12.32 17 13 17 C13.33 16.01 13.66 15.02 14 14 C15.08791082 12.84409476 16.18823929 11.69770486 17.34375 10.609375 C18.65937009 9.33098944 19.91871367 7.99474084 21.15625 6.640625 C22.31640625 5.39539063 22.31640625 5.39539063 23.5 4.125 C24.2321875 3.32320312 24.964375 2.52140625 25.71875 1.6953125 C28 0 28 0 30.63671875 0.14453125 C33.1879777 1.06804482 34.94215282 2.24701907 37 4 C35.45597489 8.01081079 32.89612829 9.94606664 29.5625 12.5625 C25.09374898 16.07322201 25.09374898 16.07322201 21 20 C22.34690458 22.96058737 23.87266416 25.16558748 26.0625 27.5625 C32.20730355 34.48677123 32.20730355 34.48677123 35 37.75 C35.78375 38.65234375 36.5675 39.5546875 37.375 40.484375 C39 43 39 43 38.75 45.328125 C38.5025 45.87984375 38.255 46.4315625 38 47 C34.6875 47.6875 34.6875 47.6875 31 48 C29.0625 46.6875 29.0625 46.6875 28 45 C28 44.34 28 43.68 28 43 C27.34 43 26.68 43 26 43 C24.484375 41.49609375 24.484375 41.49609375 22.75 39.4375 C22.13125 38.71304688 21.5125 37.98859375 20.875 37.2421875 C19.68146616 35.81491995 18.49334262 34.38309773 17.3125 32.9453125 C16.796875 32.32398438 16.28125 31.70265625 15.75 31.0625 C15.29109375 30.49660156 14.8321875 29.93070313 14.359375 29.34765625 C12.92837032 27.72982485 12.92837032 27.72982485 10 27 C10 33.93 10 40.86 10 48 C6.7 48 3.4 48 0 48 C0 32.16 0 16.32 0 0 Z " fill="#F5F5F5" transform="translate(10,22)"/>
<path d="M0 0 C3.74692394 0.04385217 5.54531259 0.20814956 8.9375 1.9375 C10.75 4.3125 10.75 4.3125 11.3125 7.3125 C10.6234851 10.98724612 9.70710304 12.0746923 6.75 14.3125 C3.00332393 16.28443477 -0.04303237 16.59296451 -4.25 16.3125 C-4.91 15.9825 -5.57 15.6525 -6.25 15.3125 C-6.27685412 13.00006208 -6.29632841 10.6875373 -6.3125 8.375 C-6.32410156 7.08722656 -6.33570312 5.79945312 -6.34765625 4.47265625 C-6.19177583 -0.5716343 -4.60445243 0.11695802 0 0 Z " fill="#0D0D0D" transform="translate(74.25,29.6875)"/>
</svg>
